<svg id="Capa_1" enable-background="new 0 0 512 512" height="512" viewBox="0 0 512 512" width="512" xmlns="http://www.w3.org/2000/svg"><g><path d="m488.609 396.895h-465.217c-8.777 0-15.891-7.115-15.891-15.891v-250.008c0-8.776 7.115-15.891 15.891-15.891h465.217c8.777 0 15.891 7.115 15.891 15.891v250.008c0 8.777-7.114 15.891-15.891 15.891z" fill="#5ea570"/><path d="m488.609 115.104h-21.023c8.777 0 15.891 7.115 15.891 15.891v250.008c0 8.776-7.115 15.891-15.891 15.891h21.023c8.776 0 15.891-7.115 15.891-15.891v-250.007c0-8.777-7.114-15.892-15.891-15.892z" fill="#528e61"/><path d="m451.472 315.824v-119.648c-15.879 0-28.752-12.873-28.752-28.752h-333.44c0 15.879-12.873 28.752-28.752 28.752v119.649c15.879 0 28.752 12.873 28.752 28.752h333.44c0-15.88 12.873-28.753 28.752-28.753z" fill="#8bc852"/><path d="m422.72 167.424h-25.642c0 8.932 4.073 16.913 10.463 22.186 11.852 9.781 18.289 24.671 18.289 40.038v52.703c0 15.367-6.437 30.257-18.289 40.038-6.39 5.273-10.463 13.254-10.463 22.186h25.642c0-15.879 12.873-28.752 28.752-28.752v-119.647c-15.879 0-28.752-12.873-28.752-28.752z" fill="#7dbe3b"/><circle cx="256" cy="256" fill="#cbe7af" r="112.568"/><path d="m256 143.432c-4.145 0-8.235.231-12.263.667 56.4 6.112 100.305 53.876 100.305 111.901s-43.905 105.789-100.305 111.901c4.029.437 8.119.667 12.263.667 62.17 0 112.568-50.399 112.568-112.568s-50.398-112.568-112.568-112.568z" fill="#aad880"/><g><path d="m53.028 315.824c0 4.143 3.357 7.5 7.5 7.5 11.719 0 21.252 9.533 21.252 21.251 0 4.143 3.357 7.5 7.5 7.5h94.818c20.475 15.293 45.64 23.993 71.901 23.993 26.96 0 51.872-8.933 71.935-23.993h94.786c4.143 0 7.5-3.357 7.5-7.5 0-11.718 9.533-21.251 21.251-21.251 4.143 0 7.5-3.357 7.5-7.5v-52.051c0-4.143-3.357-7.5-7.5-7.5s-7.5 3.357-7.5 7.5v45.331c-13.981 2.953-25.018 13.989-27.971 27.971h-71.52c19.605-21.378 31.588-49.852 31.588-81.076s-11.984-59.698-31.588-81.076h71.521c2.953 13.982 13.989 25.019 27.971 27.971v30.891c0 4.142 3.357 7.5 7.5 7.5s7.5-3.358 7.5-7.5v-37.611c0-4.142-3.357-7.5-7.5-7.5-11.718 0-21.251-9.533-21.251-21.251 0-4.142-3.357-7.5-7.5-7.5h-94.786c-20.063-15.06-44.974-23.993-71.934-23.993s-51.872 8.933-71.934 23.993h-94.787c-4.143 0-7.5 3.358-7.5 7.5 0 11.718-9.533 21.251-21.252 21.251-4.143 0-7.5 3.358-7.5 7.5zm15-112.929c13.982-2.953 25.019-13.989 27.972-27.971h71.52c-19.605 21.378-31.588 49.852-31.588 81.076 0 10.207 1.286 20.353 3.823 30.157 1.037 4.01 5.13 6.42 9.14 5.382 4.01-1.037 6.42-5.13 5.382-9.14-2.22-8.577-3.345-17.459-3.345-26.399 0-57.935 47.134-105.068 105.068-105.068s105.068 47.133 105.068 105.068-47.133 105.069-105.068 105.069c-37.395 0-72.27-20.135-91.017-52.546-2.074-3.586-6.665-4.81-10.247-2.737-3.586 2.074-4.812 6.662-2.737 10.247 4.42 7.642 9.635 14.675 15.488 21.043h-71.487c-2.953-13.981-13.989-25.018-27.972-27.971z"/><path d="m220.659 311.394c10.55 6.902 17.699 8.852 27.109 9.311v9.485c0 4.143 3.357 7.5 7.5 7.5s7.5-3.357 7.5-7.5v-10.056c18.357-3.347 29.077-18.365 31.435-32.39 2.996-17.821-6.331-33.318-23.763-39.479-2.52-.891-5.101-1.827-7.672-2.805v-39.962c6.774 1.405 10.823 4.864 11.153 5.155 3.046 2.764 7.757 2.559 10.552-.47 2.809-3.044 2.617-7.79-.428-10.598-.464-.428-8.363-7.536-21.277-9.292v-8.482c0-4.142-3.357-7.5-7.5-7.5s-7.5 3.358-7.5 7.5v9.059c-1.365.285-2.758.633-4.182 1.062-11.451 3.449-20.009 13.256-22.333 25.595-2.116 11.228 1.466 22.042 9.348 28.224 4.317 3.386 9.716 6.486 17.167 9.776v50.173c-6.828-.403-11.323-1.904-18.896-6.859-3.467-2.267-8.115-1.297-10.383 2.17s-1.296 8.115 2.17 10.383zm19.2-77.448c-3.459-2.712-4.94-7.94-3.865-13.644.999-5.303 4.62-11.731 11.774-13.959v32.559c-2.999-1.571-5.699-3.223-7.909-4.956zm25.582 28.46c15.6 5.514 14.636 18.884 13.969 22.851-1.336 7.95-6.997 16.416-16.642 19.427v-43.235c.876.317 1.758.634 2.673.957z"/><path d="m488.609 107.604h-413.087c-4.143 0-7.5 3.358-7.5 7.5s3.357 7.5 7.5 7.5h413.087c4.627 0 8.391 3.765 8.391 8.392v250.008c0 4.627-3.764 8.392-8.391 8.392h-465.217c-4.627 0-8.392-3.765-8.392-8.392v-250.008c0-4.627 3.765-8.392 8.392-8.392h22.144c4.143 0 7.5-3.358 7.5-7.5s-3.357-7.5-7.5-7.5h-22.144c-12.899 0-23.392 10.494-23.392 23.392v250.008c0 12.898 10.493 23.392 23.392 23.392h465.218c12.897 0 23.391-10.493 23.391-23.392v-250.008c-.001-12.898-10.494-23.392-23.392-23.392z"/></g></g></svg>