<svg id="Capa_1" enable-background="new 0 0 512 512" height="512" viewBox="0 0 512 512" width="512" xmlns="http://www.w3.org/2000/svg"><g><path d="m466 266.5c0-74.558-60.442-135-135-135l-30.033 373c44.395 0 81.153-32.626 109.992-70.226 24.582-32.048 56.231-92.468 55.041-167.774z" fill="#ca3d44"/><path d="m390.969 434.274c20.114-32.048 46.008-92.468 45.034-167.774 0-74.558-47.013-135-105.003-135-27.754 0-53.548 8.38-75 22.74-21.452-14.36-47.246-22.74-75-22.74-74.558 0-135 60.442-135 135-1.19 75.306 30.427 135.726 55.008 167.774 28.839 37.6 65.597 70.226 109.992 70.226 16.387 0 31.749-4.381 44.984-12.034 13.234 7.652 28.597 12.034 44.984 12.034 36.326 0 66.403-32.626 90.001-70.226z" fill="#ff3a33"/><path d="m186.117 13.524c-10.981-3.896-22.8-6.024-35.117-6.024 0 57.984 47 104.989 104.981 105z" fill="#bee070"/><path d="m256 112.5c-.001-45.674-29.165-84.528-69.883-98.976 2.082 55.177 32.561 98.961 69.883 98.976z" fill="#7ed65f"/><path d="m325.883 13.524-69.873 98.976c57.985-.005 104.99-47.013 104.99-105-12.317 0-24.136 2.128-35.117 6.024z" fill="#39aa59"/><path d="m325.883 13.524c-40.718 14.448-69.882 53.302-69.883 98.974 37.317-.006 67.801-43.792 69.883-98.974z" fill="#3dcc4e"/><path d="m31.396 196.307-13.874-5.702c-3.832-1.574-8.214.255-9.788 4.086-1.575 3.832.255 8.214 4.086 9.788l13.874 5.702c3.832 1.574 8.214-.255 9.788-4.086 1.575-3.831-.255-8.213-4.086-9.788z"/><path d="m59.006 155.035c2.937 2.921 7.686 2.907 10.606-.029 2.921-2.937 2.908-7.686-.029-10.606l-10.636-10.577c-2.937-2.921-7.686-2.907-10.606.029-2.921 2.937-2.908 7.686.029 10.606z"/><path d="m110.886 116.835c1.595 3.823 5.989 5.628 9.81 4.032 3.823-1.596 5.628-5.988 4.032-9.81l-5.779-13.842c-1.595-3.823-5.989-5.628-9.81-4.032-3.823 1.596-5.628 5.988-4.032 9.81z"/><path d="m504.266 194.691c-1.574-3.831-5.956-5.66-9.788-4.086l-13.874 5.702c-3.831 1.574-5.661 5.957-4.086 9.788 1.574 3.831 5.956 5.66 9.788 4.086l13.874-5.702c3.831-1.574 5.661-5.956 4.086-9.788z"/><path d="m452.994 155.035 10.636-10.577c2.937-2.92 2.95-7.669.029-10.606-2.92-2.937-7.669-2.951-10.606-.029l-10.636 10.577c-2.937 2.92-2.95 7.669-.029 10.606 2.92 2.937 7.669 2.951 10.606.029z"/><path d="m391.304 120.867c3.821 1.597 8.215-.209 9.81-4.032l5.779-13.842c1.596-3.822-.209-8.214-4.032-9.81-3.821-1.597-8.215.209-9.81 4.032l-5.779 13.842c-1.596 3.822.209 8.214 4.032 9.81z"/><circle cx="211" cy="474.5" r="7.5"/><circle cx="181" cy="444.5" r="7.5"/><circle cx="76" cy="266.5" r="7.5"/><circle cx="106" cy="236.5" r="7.5"/><circle cx="406" cy="296.5" r="7.5"/><path d="m256 120c62.055-.023 112.5-50.481 112.5-112.5 0-4.142-3.358-7.5-7.5-7.5-47.8 0-88.733 29.966-105 72.099-16.267-42.133-57.2-72.099-105-72.099-4.142 0-7.5 3.358-7.5 7.5 0 62.033 50.467 112.5 112.5 112.5zm97.19-104.69c-2.443 30.674-19.155 57.376-43.467 73.495.189-.263.381-.522.568-.789 12.956-18.431 20.971-42.738 22.801-68.924 6.45-1.931 13.169-3.231 20.098-3.782zm-35.764 10.004c-2.469 20.659-9.189 39.541-19.406 54.075-9.63 13.699-21.542 22.272-34.159 24.805 2.93-34.562 23.969-64.028 53.565-78.88zm-69.287 78.875c-12.622-2.54-24.532-11.114-34.159-24.806-10.217-14.532-16.936-33.411-19.406-54.069 29.595 14.852 50.633 44.315 53.565 78.875zm-69.232-85.098c1.831 26.186 9.846 50.491 22.802 68.92.19.27.384.532.575.799-24.316-16.118-41.032-42.823-43.475-73.5 6.93.551 13.649 1.851 20.098 3.781z"/><path d="m331 124c-26.669 0-52.493 7.355-75 21.318-22.507-13.963-48.331-21.318-75-21.318-32.695 0-63.451 10.779-88.944 31.171-3.234 2.587-3.759 7.307-1.172 10.542 2.588 3.234 7.308 3.759 10.542 1.172 22.805-18.242 50.321-27.885 79.574-27.885 25.352 0 49.843 7.425 70.828 21.472 2.524 1.69 5.819 1.69 8.344 0 20.985-14.047 45.476-21.472 70.828-21.472 70.304 0 127.5 57.196 127.5 127.5 0 .04 0 .079.001.119 1.342 84.869-40.604 146.288-53.493 163.091-34.729 45.279-68.761 67.29-104.041 67.29-14.497 0-28.753-3.813-41.229-11.026-2.323-1.343-5.186-1.343-7.509 0-12.475 7.213-26.732 11.026-41.229 11.026-35.279 0-69.311-22.011-104.041-67.291-12.88-16.793-54.802-78.185-53.46-163.091 0-.04.001-.079.001-.119 0-29.253 9.643-56.769 27.885-79.574 2.588-3.235 2.063-7.955-1.171-10.542s-7.955-2.063-10.542 1.172c-20.38 25.478-31.159 56.211-31.172 88.884-1.359 87.268 39.097 149.634 56.557 172.398 37.76 49.232 75.685 73.163 115.943 73.163 15.693 0 31.156-3.786 44.984-10.98 13.828 7.195 29.291 10.98 44.983 10.98 40.258 0 78.184-23.931 115.943-73.162 17.47-22.776 57.948-85.166 56.589-172.398-.03-78.548-63.943-142.44-142.499-142.44z"/></g></svg>